<!DOCTYPE svg PUBLIC "-//W3C//DTD SVG 1.1//EN" "http://www.w3.org/Graphics/SVG/1.1/DTD/svg11.dtd">
<svg width="42.46mm" height="9.91mm" viewBox="0 0 42.46 9.91" xmlns="http://www.w3.org/2000/svg" version="1.1" xmlns:xlink="http://www.w3.org/1999/xlink">
<title>Airfoil plot (user-000) NACA 7312 Airfoil M=7.0% P=30.0% T=12.0% by AirfoilTools.com</title>
<g transform="translate(1.25416,6.39956)"><g transform="scale(1,-1)"><line fill="none" stroke="green" stroke-width="0.02" x1="10" x2="10" y1="-1.71" y2="6.4"></line><line fill="none" stroke="green" stroke-width="0.02" x1="20" x2="20" y1="-1.71" y2="6.4"></line><line fill="none" stroke="green" stroke-width="0.02" x1="30" x2="30" y1="-1.71" y2="6.4"></line><line fill="none" stroke="green" stroke-width="0.02" x1="40" x2="40" y1="-1.71" y2="6.4"></line>
<path fill="none" stroke="red" stroke-width="0.04" d="M 40.01 0.05 L 39.95 0.07 L 39.77 0.13 L 39.47 0.23 L 39.06 0.37 L 38.53 0.55 L 37.88 0.76 L 37.13 1 L 36.28 1.26 L 35.32 1.54 L 34.27 1.84 L 33.13 2.15 L 31.91 2.47 L 30.61 2.79 L 29.24 3.11 L 27.82 3.41 L 26.35 3.71 L 24.83 3.99 L 23.28 4.25 L 21.71 4.48 L 20.12 4.69 L 18.53 4.86 L 16.95 5 L 15.39 5.1 L 13.85 5.17 L 12.35 5.2 L 10.82 5.17 L 9.33 5.04 L 7.91 4.81 L 6.59 4.5 L 5.36 4.13 L 4.25 3.71 L 3.26 3.25 L 2.39 2.78 L 1.65 2.3 L 1.05 1.84 L 0.57 1.39 L 0.23 0.98 L 0.02 0.6 L -0.05 0.28 L 0 0 L 0.18 -0.22 L 0.47 -0.38 L 0.88 -0.47 L 1.39 -0.51 L 2 -0.5 L 2.71 -0.45 L 3.5 -0.37 L 4.38 -0.26 L 5.33 -0.13 L 6.35 0 L 7.44 0.13 L 8.58 0.24 L 9.77 0.33 L 11.02 0.39 L 12.34 0.4 L 13.79 0.41 L 15.28 0.42 L 16.79 0.43 L 18.33 0.45 L 19.88 0.46 L 21.43 0.47 L 22.98 0.47 L 24.51 0.46 L 26.02 0.45 L 27.49 0.44 L 28.92 0.41 L 30.29 0.38 L 31.61 0.34 L 32.85 0.3 L 34.02 0.25 L 35.1 0.21 L 36.09 0.16 L 36.97 0.12 L 37.76 0.08 L 38.43 0.04 L 38.99 0.01 L 39.42 -0.02 L 39.74 -0.03 L 39.93 -0.05 L 39.99 -0.05 "></path>
<path fill="none" stroke="blue" stroke-width="0.04" d="M 0 0 L 40 0 "></path>
<line fill="none" stroke="black" stroke-width="0.04" x1="-1.25" x2="41.21" y1="0" y2="0"></line>
<line fill="none" stroke="black" stroke-width="0.04" x1="0" x2="0" y1="-1.71" y2="6.4"></line>
</g>
</g>
<g transform="translate(0,8.11336)"><g transform="scale(0.4,0.4)"><text fill="rgb(48,48,144)" font-size="1.8" style="font-family:Arial,Helvetica,sans-serif;" x="1" y="2">Name = NACA 7312 Airfoil M=7.0% P=30.0% T=12.0%</text><text fill="rgb(48,48,144)" font-size="1.8" style="font-family:Arial,Helvetica,sans-serif;" x="1" y="4">Chord = 40mm  Radius = 0mm  Thickness = 100%  Origin = 0%  Pitch = 0&#176; </text></g></g></svg>