<!DOCTYPE svg PUBLIC "-//W3C//DTD SVG 1.1//EN" "http://www.w3.org/Graphics/SVG/1.1/DTD/svg11.dtd">
<svg width="14.84mm" height="3.88mm" viewBox="0 0 14.84 3.88" xmlns="http://www.w3.org/2000/svg" version="1.1" xmlns:xlink="http://www.w3.org/1999/xlink">
<title>Airfoil plot (ah7476-il) AH-7-47-6 AIRFOIL by AirfoilTools.com</title>
<g transform="translate(0.42,2.63256)"><g transform="scale(1,-1)"><line fill="none" stroke="green" stroke-width="0.01" x1="10" x2="10" y1="-0.62" y2="2.63"></line>
<path fill="none" stroke="red" stroke-width="0.01" d="M 14 0.09 L 12.6 0.86 L 11.2 1.38 L 9.8 1.78 L 8.39 2.03 L 6.99 2.17 L 5.59 2.21 L 4.19 2.16 L 2.8 1.91 L 2.1 1.71 L 1.4 1.42 L 1.05 1.23 L 0.7 0.99 L 0.35 0.68 L 0.17 0.46 L 0 0 L 0.18 -0.2 L 0.35 -0.15 L 0.7 -0.08 L 1.05 0.01 L 1.4 0.09 L 2.1 0.27 L 2.8 0.43 L 4.2 0.69 L 5.6 0.86 L 7 0.95 L 8.4 0.98 L 9.8 0.91 L 11.2 0.73 L 12.6 0.4 L 14 -0.09 "></path>
<path fill="none" stroke="blue" stroke-width="0.01" d="M 0 0 L 14 0 "></path>
<line fill="none" stroke="black" stroke-width="0.01" x1="-0.42" x2="14.42" y1="0" y2="0"></line>
<line fill="none" stroke="black" stroke-width="0.01" x1="0" x2="0" y1="-0.62" y2="2.63"></line>
</g>
</g>
<g transform="translate(0,3.252648)"><g transform="scale(0.14,0.14)"><text fill="rgb(48,48,144)" font-size="1.8" style="font-family:Arial,Helvetica,sans-serif;" x="1" y="2">Name = AH-7-47-6 AIRFOIL</text><text fill="rgb(48,48,144)" font-size="1.8" style="font-family:Arial,Helvetica,sans-serif;" x="1" y="4">Chord = 14mm  Radius = 0mm  Thickness = 180%  Origin = 0%  Pitch = 0&#176; </text></g></g></svg>